<svg width="28" height="28" viewBox="0 0 28 28" fill="none" xmlns="http://www.w3.org/2000/svg">
<path d="M8.99935 11.5H5.66602V21.5H8.99935V11.5Z" stroke="#A3A3A3" stroke-width="2" stroke-linecap="round" stroke-linejoin="round"/>
<path d="M17.334 10.667C18.6601 10.667 19.9318 11.1938 20.8695 12.1315C21.8072 13.0691 22.334 14.3409 22.334 15.667V21.5003H19.0007V15.667C19.0007 15.225 18.8251 14.801 18.5125 14.4885C18.1999 14.1759 17.776 14.0003 17.334 14.0003C16.892 14.0003 16.468 14.1759 16.1555 14.4885C15.8429 14.801 15.6673 15.225 15.6673 15.667V21.5003H12.334V15.667C12.334 14.3409 12.8608 13.0691 13.7985 12.1315C14.7361 11.1938 16.0079 10.667 17.334 10.667V10.667Z" stroke="#A3A3A3" stroke-width="2" stroke-linecap="round" stroke-linejoin="round"/>
<path d="M7.33268 9.00033C8.25316 9.00033 8.99935 8.25413 8.99935 7.33366C8.99935 6.41318 8.25316 5.66699 7.33268 5.66699C6.41221 5.66699 5.66602 6.41318 5.66602 7.33366C5.66602 8.25413 6.41221 9.00033 7.33268 9.00033Z" stroke="#A3A3A3" stroke-width="2" stroke-linecap="round" stroke-linejoin="round"/>
</svg>
