<svg width="20" height="20" viewBox="0 0 20 20" fill="none" xmlns="http://www.w3.org/2000/svg">
<g clip-path="url(#clip0_1623_41707)">
<path d="M3.93363 10.9417L3.93369 10.9417L3.92937 10.9352C2.47277 8.75031 1.5792 6.1578 1.33273 3.56392C1.3359 2.96647 1.4882 2.4139 1.81944 2.01642C2.16595 1.60061 2.64554 1.32441 3.19309 1.24967H3.19336H3.19385H3.19434H3.19482H3.19531H3.1958H3.19629H3.19678H3.19727H3.19775H3.19824H3.19873H3.19922H3.19971H3.2002H3.20068H3.20117H3.20166H3.20215H3.20264H3.20312H3.20361H3.2041H3.20459H3.20508H3.20557H3.20605H3.20654H3.20703H3.20752H3.20801H3.2085H3.20898H3.20947H3.20996H3.21045H3.21094H3.21143H3.21191H3.2124H3.21289H3.21338H3.21387H3.21436H3.21484H3.21533H3.21582H3.21631H3.2168H3.21729H3.21777H3.21826H3.21875H3.21924H3.21973H3.22021H3.2207H3.22119H3.22168H3.22217H3.22266H3.22314H3.22363H3.22412H3.22461H3.2251H3.22559H3.22607H3.22656H3.22705H3.22754H3.22803H3.22852H3.229H3.22949H3.22998H3.23047H3.23096H3.23145H3.23193H3.23242H3.23291H3.2334H3.23389H3.23438H3.23486H3.23535H3.23584H3.23633H3.23682H3.2373H3.23779H3.23828H3.23877H3.23926H3.23975H3.24023H3.24072H3.24121H3.2417H3.24219H3.24268H3.24316H3.24365H3.24414H3.24463H3.24512H3.24561H3.24609H3.24658H3.24707H3.24756H3.24805H3.24854H3.24902H3.24951H3.25H3.25049H3.25098H3.25146H3.25195H3.25244H3.25293H3.25342H3.25391H3.25439H3.25488H3.25537H3.25586H3.25635H3.25684H3.25732H3.25781H3.2583H3.25879H3.25928H3.25977H3.26025H3.26074H3.26123H3.26172H3.26221H3.2627H3.26318H3.26367H3.26416H3.26465H3.26514H3.26562H3.26611H3.2666H3.26709H3.26758H3.26807H3.26855H3.26904H3.26953H3.27002H3.27051H3.271H3.27148H3.27197H3.27246H3.27295H3.27344H3.27393H3.27441H3.2749H3.27539H3.27588H3.27637H3.27686H3.27734H3.27783H3.27832H3.27881H3.2793H3.27979H3.28027H3.28076H3.28125H3.28174H3.28223H3.28271H3.2832H3.28369H3.28418H3.28467H3.28516H3.28564H3.28613H3.28662H3.28711H3.2876H3.28809H3.28857H3.28906H3.28955H3.29004H3.29053H3.29102H3.2915H3.29199H3.29248H3.29297H3.29346H3.29395H3.29443H3.29492H3.29541H3.2959H3.29639H3.29688H3.29736H3.29785H3.29834H3.29883H3.29932H3.2998H3.30029H3.30078H3.30127H3.30176H3.30225H3.30273H3.30322H3.30371H3.3042H3.30469H3.30518H3.30566H3.30615H3.30664H3.30713H3.30762H3.30811H3.30859H3.30908H3.30957H3.31006H3.31055H3.31104H3.31152H3.31201H3.3125H3.31299H3.31348H3.31396H3.31445H3.31494H3.31543H3.31592H3.31641H3.31689H3.31738H3.31787H3.31836H3.31885H3.31934H3.31982H3.32031H3.3208H3.32129H3.32178H3.32227H3.32275H3.32324H3.32373H3.32422H3.32471H3.3252H3.32568H3.32617H3.32666H3.32715H3.32764H3.32812H3.32861H3.3291H3.32959H3.33008H3.33057H3.33105H3.33154H3.33203H3.33252H3.33301H3.3335H3.33398H3.33447H3.33496H3.33545H3.33594H3.33643H3.33691H3.3374H3.33789H3.33838H3.33887H3.33936H3.33984H3.34033H3.34082H3.34131H3.3418H3.34229H3.34277H3.34326H3.34375H3.34424H3.34473H3.34521H3.3457H3.34619H3.34668H3.34717H3.34766H3.34814H3.34863H3.34912H3.34961H3.3501H3.35059H3.35107H3.35156H3.35205H3.35254H3.35303H3.35352H3.354H3.35449H3.35498H3.35547H3.35596H3.35645H3.35693H3.35742H3.35791H3.3584H3.35889H3.35938H3.35986H3.36035H3.36084H3.36133H3.36182H3.3623H3.36279H3.36328H3.36377H3.36426H3.36475H3.36523H3.36572H3.36621H3.3667H3.36719H3.36768H3.36816H3.36865H3.36914H3.36963H3.37012H3.37061H3.37109H3.37158H3.37207H3.37256H3.37305H3.37354H3.37402H3.37451H3.375H3.37549H3.37598H3.37646H3.37695H3.37744H3.37793H3.37842H3.37891H3.37939H3.37988H3.38037H3.38086H3.38135H3.38184H3.38232H3.38281H3.3833H3.38379H3.38428H3.38477H3.38525H3.38574H3.38623H3.38672H3.38721H3.3877H3.38818H3.38867H3.38916H3.38965H3.39014H3.39062H3.39111H3.3916H3.39209H3.39258H3.39307H3.39355H3.39404H3.39453H3.39502H3.39551H3.396H3.39648H3.39697H3.39746H3.39795H3.39844H3.39893H3.39941H3.3999H3.40039H3.40088H3.40137H3.40186H3.40234H3.40283H3.40332H3.40381H3.4043H3.40479H3.40527H3.40576H3.40625H3.40674H3.40723H3.40771H3.4082H3.40869H3.40918H3.40967H3.41016H3.41064H3.41113H3.41162H3.41211H3.4126H3.41309H3.41357H3.41406H3.41455H3.41504H3.41553H3.41602H5.91602C6.96211 1.24967 7.86229 2.01589 8.00243 3.05047C8.08902 3.82664 8.26208 4.60855 8.52511 5.31058C8.79649 6.05914 8.6028 6.89635 8.02909 7.54734L7.45472 8.12171L7.21318 8.36325L7.40266 8.64747C8.42834 10.186 9.71805 11.5648 11.3602 12.602L11.6418 12.7798L11.8773 12.5443L12.4606 11.961C13.0126 11.409 13.9246 11.197 14.6885 11.4739C15.3905 11.737 16.1724 11.91 16.9485 11.9966C17.9831 12.1367 18.7493 13.0369 18.7493 14.083V16.583C18.7493 17.1554 18.5338 17.6925 18.1493 18.0129C17.6798 18.4041 17.1899 18.6663 16.666 18.6663H16.6655H16.665H16.6646H16.6641H16.6636H16.6631H16.6626H16.6621H16.6616H16.6611H16.6606H16.6602H16.6597H16.6592H16.6587H16.6582H16.6577H16.6572H16.6567H16.6562H16.6558H16.6553H16.6548H16.6543H16.6538H16.6533H16.6528H16.6523H16.6519H16.6514H16.6509H16.6504H16.6499H16.6494H16.6489H16.6484H16.6479H16.6475H16.647H16.6465H16.646H16.6455H16.645H16.6445H16.644H16.6436H16.6431H16.6426H16.6421H16.6416H16.6411H16.6406H16.6401H16.6396H16.6392H16.6387H16.6382H16.6377H16.6372H16.6367H16.6362H16.6357H16.6353H16.6348H16.6343H16.6338H16.6333H16.6328H16.6323H16.6318H16.6313H16.6309H16.6304H16.6299H16.6294H16.6289H16.6284H16.6279H16.6274H16.627H16.6265H16.626H16.6255H16.625H16.6245H16.624H16.6235H16.623H16.6226H16.6221H16.6216H16.6211H16.6206H16.6201H16.6196H16.6191H16.6187H16.6182H16.6177H16.6172H16.6167H16.6162H16.6157H16.6152H16.6147H16.6143H16.6138H16.6133H16.6128H16.6123H16.6118H16.6113H16.6108H16.6104H16.6099H16.6094H16.6089H16.6084H16.6079H16.6074H16.6069H16.6064H16.606H16.6055H16.605H16.6045H16.604H16.6035H16.603H16.6025H16.6021H16.6016H16.6011H16.6006H16.6001H16.5996H16.5991H16.5986H16.5981H16.5977H16.5972H16.5967H16.5962H16.5957H16.5952H16.5947H16.5942H16.5938H16.5933H16.5928H16.5923H16.5918H16.5913H16.5908H16.5903H16.5898H16.5894H16.5889H16.5884H16.5879H16.5874H16.5869H16.5864H16.5859H16.5854H16.585H16.5845H16.584H16.5835H16.583H16.5825H16.582H16.5815H16.5811H16.5806H16.5801H16.5796H16.5791H16.5786H16.5781H16.5776H16.5771H16.5767H16.5762H16.5757H16.5752H16.5747H16.5742H16.5737H16.5732H16.5728H16.5723H16.5718H16.5713H16.5708H16.5703H16.5698H16.5693H16.5688H16.5684H16.5679H16.5674H16.5669H16.5664H16.5659H16.5654H16.5649H16.5645H16.564H16.5635H16.563H16.5625H16.562H16.5615H16.561H16.5605H16.5601H16.5596H16.5591H16.5586H16.5581H16.5576H16.5571H16.5566H16.5562H16.5557H16.5552H16.5547H16.5542H16.5537H16.5532H16.5527H16.5522H16.5518H16.5513H16.5508H16.5503H16.5498H16.5493H16.5488H16.5483H16.5479H16.5474H16.5469H16.5464H16.5459H16.5454H16.5449H16.5444H16.5439H16.5435H16.543H16.5425H16.542H16.5415H16.541H16.5405H16.54H16.5396H16.5391H16.5386H16.5381H16.5376H16.5371H16.5366H16.5361H16.5356H16.5352H16.5347H16.5342H16.5337H16.5332H16.5327H16.5322H16.5317H16.5313H16.5308H16.5303H16.5298H16.5293H16.5288H16.5283H16.5278H16.5273H16.5269H16.5264H16.5259H16.5254H16.5249H16.5244H16.5239H16.5234H16.523H16.5225H16.522H16.5215H16.521H16.5205H16.52H16.5195H16.519H16.5186H16.5181H16.5176H16.5171H16.5166H16.5161H16.5156H16.5151H16.5146H16.5142H16.5137H16.5132H16.5127H16.5122H16.5117H16.5112H16.5107H16.5103H16.5098H16.5093H16.5088H16.5083H16.5078H16.5073H16.5068H16.5063H16.5059H16.5054H16.5049H16.5044H16.5039H16.5034H16.5029H16.5024H16.502H16.5015H16.501H16.5005H16.5H16.4995H16.499H16.4985H16.498H16.4976H16.4971H16.4966H16.4961H16.4956H16.4951H16.4946H16.4941H16.4937H16.4932H16.4927H16.4922H16.4917H16.4912H16.4907H16.4902H16.4897H16.4893H16.4888H16.4883H16.4878H16.4873H16.4868H16.4863H16.4858H16.4854H16.4849H16.4844H16.4839H16.4834H16.4829H16.4824H16.4819H16.4814H16.481H16.4805H16.48H16.4795H16.479H16.4785H16.478H16.4775H16.4771H16.4766H16.4761H16.4756H16.4751H16.4746H16.4741H16.4736H16.4731H16.4727H16.4722H16.4717H16.4712H16.4707H16.4702H16.4697H16.4692H16.4688H16.4683H16.4678H16.4673H16.4668H16.4663H16.4658H16.4653H16.4648H16.4644H16.4639H16.4634H16.4629H16.4624H16.4619H16.4614H16.4609H16.4605H16.46H16.4595H16.459H16.4585H16.458H16.4575H16.457H16.4565H16.4561H16.4556H16.4551H16.4546H16.4541H16.4536H16.4531H16.4526H16.4521H16.4517H16.4512H16.4507H16.4502H16.4497H16.4492H16.4487H16.4482H16.4478H16.4473H16.4468H16.4463H16.4458H16.4453H16.4448H16.4443H16.4438H16.4434H16.4429H16.4424H16.4421C13.8411 18.3375 11.2436 17.4417 9.05594 16.0645C7.02392 14.7638 5.23419 12.9739 3.93363 10.9417ZM2.45472 2.53838L2.40691 2.58619L2.37667 2.64667C2.3749 2.65021 2.37311 2.65378 2.37131 2.65738C2.28652 2.8268 2.16602 3.06758 2.16602 3.41634V3.43784L2.16823 3.45922C2.42518 5.94313 3.28141 8.33835 4.6484 10.4743L4.64839 10.4743L4.65034 10.4773C5.92626 12.4337 7.55047 14.148 9.52868 15.3531C11.6636 16.7187 14.0574 17.574 16.5398 17.8308L16.5612 17.833H16.5827C16.783 17.833 16.9646 17.8082 17.1333 17.7407C17.3052 17.6719 17.4344 17.5705 17.544 17.461C17.6519 17.353 17.7494 17.2286 17.8176 17.0751C17.8866 16.9199 17.916 16.7566 17.916 16.583V14.083C17.916 13.4251 17.3974 12.9544 16.8311 12.8411L16.8111 12.8371L16.7908 12.8351C16.0106 12.7571 15.2174 12.5214 14.4041 12.1961L14.3778 12.1856L14.3504 12.1788C13.9704 12.0838 13.446 12.0471 13.0381 12.455L11.9547 13.5384C11.8265 13.6666 11.6063 13.7082 11.4424 13.6303C9.28266 12.4282 7.5201 10.6722 6.31039 8.51795C6.27584 8.31233 6.3405 8.08111 6.46064 7.96097L7.54398 6.87764C7.71015 6.71147 7.79619 6.47339 7.83501 6.27931C7.87495 6.07961 7.88342 5.83426 7.8113 5.61791L7.80743 5.6063L7.80288 5.59493C7.49039 4.81369 7.33011 4.02856 7.165 3.20332C7.15036 2.87069 6.97955 2.59225 6.76182 2.40355C6.53524 2.20718 6.23155 2.08301 5.91602 2.08301H3.41602C2.99975 2.08301 2.64843 2.34467 2.45472 2.53838Z" fill="black" stroke="#4B5565" stroke-width="0.833333"/>
</g>
<defs>
<clipPath id="clip0_1623_41707">
<rect width="20" height="20" fill="white"/>
</clipPath>
</defs>
</svg>
