<svg width="44" height="44" viewBox="0 0 44 44" fill="none" xmlns="http://www.w3.org/2000/svg">
<path d="M0.5 8C0.5 3.85786 3.85786 0.5 8 0.5H36C40.1421 0.5 43.5 3.85786 43.5 8V36C43.5 40.1421 40.1421 43.5 36 43.5H8C3.85786 43.5 0.5 40.1421 0.5 36V8Z" fill="white"/>
<path d="M0.5 8C0.5 3.85786 3.85786 0.5 8 0.5H36C40.1421 0.5 43.5 3.85786 43.5 8V36C43.5 40.1421 40.1421 43.5 36 43.5H8C3.85786 43.5 0.5 40.1421 0.5 36V8Z" stroke="#4B5565"/>
<g clip-path="url(#clip0_2397_16719)">
<path d="M17 23.6667V28.6667C17 29.5871 17.7462 30.3333 18.6667 30.3333H27.8333C28.7538 30.3333 29.5 29.5871 29.5 28.6667V18.6667C29.5 17.7462 28.7538 17 27.8333 17H23.6667" stroke="#4B5565" stroke-width="1.5" stroke-linecap="round" stroke-linejoin="round"/>
<path d="M20.334 22.833L29.5007 22.833" stroke="#4B5565" stroke-width="1.5" stroke-linecap="round" stroke-linejoin="round"/>
<path d="M25.334 15.333V16.9997" stroke="#4B5565" stroke-width="1.5" stroke-linecap="round" stroke-linejoin="round"/>
<path d="M16.9993 13.667V20.3337M13.666 17.0003H20.3327" stroke="#4B5565" stroke-width="1.5" stroke-linecap="round" stroke-linejoin="round"/>
</g>
<defs>
<clipPath id="clip0_2397_16719">
<rect width="20" height="20" fill="white" transform="translate(12 12)"/>
</clipPath>
</defs>
</svg>
