<svg width="28" height="29" viewBox="0 0 28 29" fill="none" xmlns="http://www.w3.org/2000/svg">
<path d="M19 22.833C20.3807 22.833 21.5 21.7137 21.5 20.333C21.5 18.9523 20.3807 17.833 19 17.833C17.6193 17.833 16.5 18.9523 16.5 20.333C16.5 21.7137 17.6193 22.833 19 22.833Z" stroke="#A3A3A3" stroke-width="2" stroke-linecap="round" stroke-linejoin="round"/>
<path d="M9 17C10.3807 17 11.5 15.8807 11.5 14.5C11.5 13.1193 10.3807 12 9 12C7.61929 12 6.5 13.1193 6.5 14.5C6.5 15.8807 7.61929 17 9 17Z" stroke="#A3A3A3" stroke-width="2" stroke-linecap="round" stroke-linejoin="round"/>
<path d="M11.1602 15.7588L16.8518 19.0755" stroke="#A3A3A3" stroke-width="2" stroke-linecap="round" stroke-linejoin="round"/>
<path d="M19 11.167C20.3807 11.167 21.5 10.0477 21.5 8.66699C21.5 7.28628 20.3807 6.16699 19 6.16699C17.6193 6.16699 16.5 7.28628 16.5 8.66699C16.5 10.0477 17.6193 11.167 19 11.167Z" stroke="#A3A3A3" stroke-width="2" stroke-linecap="round" stroke-linejoin="round"/>
<path d="M16.8435 9.9248L11.1602 13.2415" stroke="#A3A3A3" stroke-width="2" stroke-linecap="round" stroke-linejoin="round"/>
</svg>
