<svg width="40" height="40" viewBox="0 0 40 40" fill="none" xmlns="http://www.w3.org/2000/svg">
<path d="M0 8C0 3.58172 3.58172 0 8 0H32C36.4183 0 40 3.58172 40 8V32C40 36.4183 36.4183 40 32 40H8C3.58172 40 0 36.4183 0 32V8Z" fill="black"/>
<g clip-path="url(#clip0_1623_41604)">
<path fill-rule="evenodd" clip-rule="evenodd" d="M24.9993 12.4997C24.0789 12.4997 23.3327 13.2459 23.3327 14.1663C23.3327 14.456 23.4065 14.7283 23.5365 14.9656C23.5449 14.9783 23.5529 14.9914 23.5607 15.0047C23.5684 15.0179 23.5757 15.0312 23.5827 15.0447C23.8767 15.5179 24.4012 15.833 24.9993 15.833C25.9198 15.833 26.666 15.0868 26.666 14.1663C26.666 13.2459 25.9198 12.4997 24.9993 12.4997ZM22.6311 16.5121C23.2352 17.1219 24.0731 17.4997 24.9993 17.4997C26.8403 17.4997 28.3327 16.0073 28.3327 14.1663C28.3327 12.3254 26.8403 10.833 24.9993 10.833C23.1584 10.833 21.666 12.3254 21.666 14.1663C21.666 14.4805 21.7095 14.7846 21.7907 15.0727L17.3676 17.654C16.7636 17.0441 15.9256 16.6663 14.9993 16.6663C13.1584 16.6663 11.666 18.1587 11.666 19.9997C11.666 21.8406 13.1584 23.333 14.9993 23.333C15.9257 23.333 16.7638 22.9551 17.3679 22.3451L21.7918 24.9229C21.7099 25.2122 21.666 25.5175 21.666 25.833C21.666 27.6739 23.1584 29.1663 24.9993 29.1663C26.8403 29.1663 28.3327 27.6739 28.3327 25.833C28.3327 23.992 26.8403 22.4996 24.9993 22.4996C24.0745 22.4996 23.2376 22.8763 22.6337 23.4846L18.2081 20.9056C18.2893 20.6176 18.3327 20.3137 18.3327 19.9997C18.3327 19.6855 18.2892 19.3815 18.208 19.0933L22.6311 16.5121ZM16.4155 19.1203C16.4225 19.1342 16.43 19.1478 16.4379 19.1614C16.4459 19.175 16.4542 19.1884 16.4628 19.2014C16.5924 19.4385 16.666 19.7105 16.666 19.9997C16.666 20.289 16.5923 20.5612 16.4626 20.7983C16.4539 20.8114 16.4456 20.8248 16.4376 20.8385C16.4299 20.8517 16.4226 20.8651 16.4156 20.8787C16.1215 21.3515 15.5972 21.6663 14.9993 21.6663C14.0789 21.6663 13.3327 20.9201 13.3327 19.9997C13.3327 19.0792 14.0789 18.333 14.9993 18.333C15.5971 18.333 16.1213 18.6476 16.4155 19.1203ZM23.5121 25.08C23.5326 25.053 23.5518 25.0244 23.5693 24.9943C23.5861 24.9654 23.601 24.9359 23.614 24.906C23.9131 24.4599 24.4219 24.1663 24.9993 24.1663C25.9198 24.1663 26.666 24.9125 26.666 25.833C26.666 26.7535 25.9198 27.4996 24.9993 27.4996C24.0789 27.4996 23.3327 26.7535 23.3327 25.833C23.3327 25.562 23.3973 25.3062 23.5121 25.08Z" fill="white"/>
</g>
<defs>
<clipPath id="clip0_1623_41604">
<rect width="20" height="20" fill="white" transform="translate(10 10)"/>
</clipPath>
</defs>
</svg>
