<svg width="28" height="28" viewBox="0 0 28 28" fill="none" xmlns="http://www.w3.org/2000/svg">
<g clip-path="url(#clip0_1623_41675)">
<path d="M23.1673 6.49959C22.3693 7.06249 21.4857 7.49302 20.5507 7.77459C20.0488 7.19752 19.3818 6.7885 18.6398 6.60286C17.8979 6.41722 17.1169 6.46392 16.4024 6.73664C15.6879 7.00935 15.0744 7.49493 14.6448 8.12769C14.2153 8.76045 13.9904 9.50987 14.0007 10.2746V11.1079C12.5362 11.1459 11.085 10.8211 9.77649 10.1625C8.46794 9.50382 7.34258 8.53179 6.50065 7.33292C6.50065 7.33292 3.16732 14.8329 10.6673 18.1663C8.95109 19.3312 6.90661 19.9154 4.83398 19.8329C12.334 23.9996 21.5006 19.8329 21.5006 10.2496C21.4999 10.0175 21.4776 9.78592 21.434 9.55792C22.2845 8.71917 22.8847 7.66018 23.1673 6.49959V6.49959Z" stroke="#A3A3A3" stroke-width="2" stroke-linecap="round" stroke-linejoin="round"/>
</g>
<defs>
<clipPath id="clip0_1623_41675">
<rect width="20" height="20" fill="white" transform="translate(4 4)"/>
</clipPath>
</defs>
</svg>
