<svg width="28" height="28" viewBox="0 0 28 28" fill="none" xmlns="http://www.w3.org/2000/svg">
<g clip-path="url(#clip0_1623_41676)">
<path d="M13.9993 22.3337C18.6017 22.3337 22.3327 18.6027 22.3327 14.0003C22.3327 9.39795 18.6017 5.66699 13.9993 5.66699C9.39698 5.66699 5.66602 9.39795 5.66602 14.0003C5.66602 18.6027 9.39698 22.3337 13.9993 22.3337Z" stroke="#A3A3A3" stroke-width="2" stroke-linecap="round" stroke-linejoin="round"/>
<path d="M5.66602 14H22.3327" stroke="#A3A3A3" stroke-width="2" stroke-linecap="round" stroke-linejoin="round"/>
<path d="M13.9993 5.66699C16.0837 7.94895 17.2683 10.9104 17.3327 14.0003C17.2683 17.0903 16.0837 20.0517 13.9993 22.3337C11.9149 20.0517 10.7304 17.0903 10.666 14.0003C10.7304 10.9104 11.9149 7.94895 13.9993 5.66699V5.66699Z" stroke="#A3A3A3" stroke-width="2" stroke-linecap="round" stroke-linejoin="round"/>
</g>
<defs>
<clipPath id="clip0_1623_41676">
<rect width="20" height="20" fill="white" transform="translate(4 4)"/>
</clipPath>
</defs>
</svg>
