<svg width="364" height="261" viewBox="0 0 364 261" fill="none" xmlns="http://www.w3.org/2000/svg">
<g clip-path="url(#clip0_1007_26322)">
<path d="M0 32C0 14.3269 14.3269 0 32 0H332C349.673 0 364 14.3269 364 32V229C364 246.673 349.673 261 332 261H32C14.3269 261 0 246.673 0 229V32Z" fill="white"/>
<path d="M90.3026 54H87.4901L92.6108 39.4545H95.8636L100.991 54H98.179L94.294 42.4375H94.1804L90.3026 54ZM90.3949 48.2969H98.0653V50.4134H90.3949V48.2969ZM105.365 39.4545V54H102.794V39.4545H105.365ZM110.58 39.4545V54H108.009V39.4545H110.58ZM123.014 54.2131C121.92 54.2131 120.975 53.9858 120.18 53.5312C119.389 53.072 118.781 52.4233 118.355 51.5852C117.929 50.7424 117.716 49.7505 117.716 48.6094C117.716 47.4872 117.929 46.5024 118.355 45.6548C118.786 44.8026 119.387 44.1397 120.159 43.6662C120.931 43.188 121.837 42.9489 122.879 42.9489C123.551 42.9489 124.186 43.0578 124.782 43.2756C125.384 43.4886 125.914 43.8201 126.373 44.2699C126.837 44.7197 127.202 45.2926 127.467 45.9886C127.732 46.6799 127.865 47.5038 127.865 48.4602V49.2486H118.923V47.5156H125.4C125.395 47.0232 125.289 46.5852 125.081 46.2017C124.872 45.8134 124.581 45.508 124.207 45.2855C123.838 45.063 123.407 44.9517 122.914 44.9517C122.389 44.9517 121.927 45.0795 121.529 45.3352C121.132 45.5862 120.822 45.9176 120.599 46.3295C120.381 46.7367 120.27 47.1842 120.265 47.6719V49.1847C120.265 49.8191 120.381 50.3636 120.613 50.8182C120.845 51.268 121.17 51.6136 121.586 51.8551C122.003 52.0919 122.491 52.2102 123.049 52.2102C123.423 52.2102 123.762 52.1581 124.065 52.054C124.368 51.9451 124.631 51.7865 124.853 51.5781C125.076 51.3698 125.244 51.1117 125.358 50.804L127.758 51.0739C127.607 51.7083 127.318 52.2623 126.892 52.7358C126.47 53.2045 125.931 53.5691 125.272 53.8295C124.614 54.0852 123.861 54.2131 123.014 54.2131ZM139.472 43.0909L135.587 54H132.746L128.861 43.0909H131.602L134.109 51.1946H134.223L136.737 43.0909H139.472ZM145.709 54.2131C144.615 54.2131 143.671 53.9858 142.875 53.5312C142.085 53.072 141.476 52.4233 141.05 51.5852C140.624 50.7424 140.411 49.7505 140.411 48.6094C140.411 47.4872 140.624 46.5024 141.05 45.6548C141.481 44.8026 142.082 44.1397 142.854 43.6662C143.626 43.188 144.533 42.9489 145.574 42.9489C146.247 42.9489 146.881 43.0578 147.478 43.2756C148.079 43.4886 148.609 43.8201 149.069 44.2699C149.533 44.7197 149.897 45.2926 150.162 45.9886C150.427 46.6799 150.56 47.5038 150.56 48.4602V49.2486H141.618V47.5156H148.096C148.091 47.0232 147.984 46.5852 147.776 46.2017C147.568 45.8134 147.276 45.508 146.902 45.2855C146.533 45.063 146.102 44.9517 145.61 44.9517C145.084 44.9517 144.623 45.0795 144.225 45.3352C143.827 45.5862 143.517 45.9176 143.294 46.3295C143.077 46.7367 142.965 47.1842 142.961 47.6719V49.1847C142.961 49.8191 143.077 50.3636 143.309 50.8182C143.541 51.268 143.865 51.6136 144.282 51.8551C144.698 52.0919 145.186 52.2102 145.745 52.2102C146.119 52.2102 146.457 52.1581 146.76 52.054C147.063 51.9451 147.326 51.7865 147.549 51.5781C147.771 51.3698 147.939 51.1117 148.053 50.804L150.453 51.0739C150.302 51.7083 150.013 52.2623 149.587 52.7358C149.166 53.2045 148.626 53.5691 147.968 53.8295C147.31 54.0852 146.557 54.2131 145.709 54.2131ZM155.306 47.608V54H152.735V43.0909H155.192V44.9446H155.32C155.571 44.3338 155.971 43.8485 156.521 43.4886C157.075 43.1288 157.759 42.9489 158.573 42.9489C159.326 42.9489 159.982 43.1098 160.54 43.4318C161.104 43.7538 161.54 44.2202 161.847 44.831C162.16 45.4418 162.314 46.1828 162.309 47.054V54H159.738V47.4517C159.738 46.7225 159.549 46.152 159.17 45.7401C158.796 45.3281 158.277 45.1222 157.614 45.1222C157.165 45.1222 156.764 45.2216 156.414 45.4205C156.068 45.6146 155.796 45.8963 155.597 46.2656C155.403 46.6349 155.306 47.0824 155.306 47.608ZM170.37 43.0909V45.0795H164.099V43.0909H170.37ZM165.647 40.4773H168.218V50.7188C168.218 51.0644 168.27 51.3295 168.374 51.5142C168.483 51.6941 168.625 51.8172 168.8 51.8835C168.976 51.9498 169.17 51.983 169.383 51.983C169.544 51.983 169.691 51.9711 169.823 51.9474C169.96 51.9238 170.065 51.9025 170.136 51.8835L170.569 53.8935C170.432 53.9408 170.235 53.9929 169.979 54.0497C169.728 54.1065 169.421 54.1397 169.056 54.1491C168.412 54.1681 167.832 54.071 167.316 53.858C166.8 53.6402 166.39 53.304 166.087 52.8494C165.789 52.3949 165.642 51.8267 165.647 51.1449V40.4773ZM180.986 45.9744L178.642 46.2301C178.576 45.9934 178.46 45.7708 178.294 45.5625C178.133 45.3542 177.916 45.1861 177.641 45.0582C177.366 44.9304 177.03 44.8665 176.632 44.8665C176.097 44.8665 175.648 44.9825 175.283 45.2145C174.923 45.4465 174.746 45.7472 174.75 46.1165C174.746 46.4337 174.862 46.6918 175.098 46.8906C175.34 47.0895 175.738 47.2528 176.292 47.3807L178.152 47.7784C179.185 48.0009 179.952 48.3537 180.453 48.8366C180.96 49.3196 181.216 49.9517 181.221 50.733C181.216 51.4195 181.015 52.0256 180.617 52.5511C180.224 53.072 179.677 53.4792 178.976 53.7727C178.275 54.0663 177.471 54.2131 176.561 54.2131C175.226 54.2131 174.151 53.9337 173.337 53.375C172.523 52.8116 172.037 52.0279 171.881 51.0241L174.388 50.7827C174.502 51.2751 174.743 51.6468 175.113 51.8977C175.482 52.1487 175.962 52.2741 176.554 52.2741C177.165 52.2741 177.655 52.1487 178.025 51.8977C178.399 51.6468 178.586 51.3366 178.586 50.9673C178.586 50.6548 178.465 50.3968 178.223 50.1932C177.987 49.9896 177.617 49.8333 177.115 49.7244L175.255 49.3338C174.208 49.116 173.434 48.7491 172.932 48.233C172.43 47.7121 172.182 47.054 172.186 46.2585C172.182 45.5862 172.364 45.0038 172.733 44.5114C173.107 44.0142 173.626 43.6307 174.289 43.3608C174.956 43.0862 175.726 42.9489 176.597 42.9489C177.875 42.9489 178.882 43.2211 179.615 43.7656C180.354 44.3101 180.811 45.0464 180.986 45.9744ZM188.301 54V43.0909H190.873V54H188.301ZM189.594 41.5426C189.187 41.5426 188.837 41.4077 188.543 41.1378C188.249 40.8632 188.103 40.5341 188.103 40.1506C188.103 39.7623 188.249 39.4332 188.543 39.1634C188.837 38.8887 189.187 38.7514 189.594 38.7514C190.006 38.7514 190.356 38.8887 190.645 39.1634C190.939 39.4332 191.086 39.7623 191.086 40.1506C191.086 40.5341 190.939 40.8632 190.645 41.1378C190.356 41.4077 190.006 41.5426 189.594 41.5426ZM196.087 47.608V54H193.516V43.0909H195.974V44.9446H196.102C196.353 44.3338 196.753 43.8485 197.302 43.4886C197.856 43.1288 198.54 42.9489 199.354 42.9489C200.107 42.9489 200.763 43.1098 201.322 43.4318C201.885 43.7538 202.321 44.2202 202.629 44.831C202.941 45.4418 203.095 46.1828 203.09 47.054V54H200.519V47.4517C200.519 46.7225 200.33 46.152 199.951 45.7401C199.577 45.3281 199.058 45.1222 198.396 45.1222C197.946 45.1222 197.546 45.2216 197.195 45.4205C196.85 45.6146 196.577 45.8963 196.379 46.2656C196.184 46.6349 196.087 47.0824 196.087 47.608ZM215.423 54.2131C214.358 54.2131 213.435 53.9787 212.653 53.5099C211.872 53.0412 211.266 52.3854 210.835 51.5426C210.409 50.6998 210.196 49.715 210.196 48.5881C210.196 47.4612 210.409 46.474 210.835 45.6264C211.266 44.7789 211.872 44.1207 212.653 43.652C213.435 43.1832 214.358 42.9489 215.423 42.9489C216.489 42.9489 217.412 43.1832 218.193 43.652C218.974 44.1207 219.578 44.7789 220.004 45.6264C220.435 46.474 220.651 47.4612 220.651 48.5881C220.651 49.715 220.435 50.6998 220.004 51.5426C219.578 52.3854 218.974 53.0412 218.193 53.5099C217.412 53.9787 216.489 54.2131 215.423 54.2131ZM215.438 52.1534C216.015 52.1534 216.498 51.9948 216.886 51.6776C217.275 51.3556 217.563 50.9247 217.753 50.3849C217.947 49.8452 218.044 49.2438 218.044 48.581C218.044 47.9134 217.947 47.3097 217.753 46.7699C217.563 46.2254 217.275 45.7921 216.886 45.4702C216.498 45.1482 216.015 44.9872 215.438 44.9872C214.846 44.9872 214.353 45.1482 213.96 45.4702C213.572 45.7921 213.281 46.2254 213.087 46.7699C212.897 47.3097 212.803 47.9134 212.803 48.581C212.803 49.2438 212.897 49.8452 213.087 50.3849C213.281 50.9247 213.572 51.3556 213.96 51.6776C214.353 51.9948 214.846 52.1534 215.438 52.1534ZM225.404 47.608V54H222.833V43.0909H225.29V44.9446H225.418C225.669 44.3338 226.069 43.8485 226.618 43.4886C227.172 43.1288 227.856 42.9489 228.671 42.9489C229.424 42.9489 230.079 43.1098 230.638 43.4318C231.202 43.7538 231.637 44.2202 231.945 44.831C232.257 45.4418 232.411 46.1828 232.407 47.054V54H229.836V47.4517C229.836 46.7225 229.646 46.152 229.267 45.7401C228.893 45.3281 228.375 45.1222 227.712 45.1222C227.262 45.1222 226.862 45.2216 226.512 45.4205C226.166 45.6146 225.894 45.8963 225.695 46.2656C225.501 46.6349 225.404 47.0824 225.404 47.608ZM239.85 54.2131C238.756 54.2131 237.811 53.9858 237.016 53.5312C236.225 53.072 235.617 52.4233 235.191 51.5852C234.765 50.7424 234.551 49.7505 234.551 48.6094C234.551 47.4872 234.765 46.5024 235.191 45.6548C235.622 44.8026 236.223 44.1397 236.995 43.6662C237.766 43.188 238.673 42.9489 239.715 42.9489C240.387 42.9489 241.022 43.0578 241.618 43.2756C242.22 43.4886 242.75 43.8201 243.209 44.2699C243.673 44.7197 244.038 45.2926 244.303 45.9886C244.568 46.6799 244.701 47.5038 244.701 48.4602V49.2486H235.759V47.5156H242.236C242.231 47.0232 242.125 46.5852 241.917 46.2017C241.708 45.8134 241.417 45.508 241.043 45.2855C240.674 45.063 240.243 44.9517 239.75 44.9517C239.225 44.9517 238.763 45.0795 238.365 45.3352C237.968 45.5862 237.658 45.9176 237.435 46.3295C237.217 46.7367 237.106 47.1842 237.101 47.6719V49.1847C237.101 49.8191 237.217 50.3636 237.449 50.8182C237.681 51.268 238.006 51.6136 238.422 51.8551C238.839 52.0919 239.327 52.2102 239.885 52.2102C240.259 52.2102 240.598 52.1581 240.901 52.054C241.204 51.9451 241.467 51.7865 241.689 51.5781C241.912 51.3698 242.08 51.1117 242.194 50.804L244.594 51.0739C244.443 51.7083 244.154 52.2623 243.728 52.7358C243.306 53.2045 242.766 53.5691 242.108 53.8295C241.45 54.0852 240.697 54.2131 239.85 54.2131ZM251.837 58.0909V43.0909H254.365V44.8949H254.514C254.647 44.6297 254.834 44.348 255.075 44.0497C255.317 43.7467 255.643 43.4886 256.055 43.2756C256.467 43.0578 256.993 42.9489 257.632 42.9489C258.475 42.9489 259.235 43.1643 259.912 43.5952C260.594 44.0213 261.134 44.6534 261.531 45.4915C261.934 46.3248 262.135 47.3475 262.135 48.5597C262.135 49.7576 261.938 50.7756 261.545 51.6136C261.152 52.4517 260.617 53.0909 259.94 53.5312C259.263 53.9716 258.496 54.1918 257.639 54.1918C257.014 54.1918 256.496 54.0876 256.084 53.8793C255.672 53.6709 255.34 53.42 255.089 53.1264C254.843 52.8281 254.652 52.5464 254.514 52.2812H254.408V58.0909H251.837ZM254.358 48.5455C254.358 49.2509 254.457 49.8688 254.656 50.3991C254.86 50.9295 255.151 51.3437 255.53 51.642C255.913 51.9356 256.377 52.0824 256.922 52.0824C257.49 52.0824 257.966 51.9309 258.349 51.6278C258.733 51.3201 259.022 50.901 259.216 50.3707C259.415 49.8357 259.514 49.2273 259.514 48.5455C259.514 47.8684 259.417 47.267 259.223 46.7415C259.029 46.2159 258.74 45.804 258.357 45.5057C257.973 45.2074 257.495 45.0582 256.922 45.0582C256.373 45.0582 255.906 45.2027 255.523 45.4915C255.139 45.7803 254.848 46.1851 254.649 46.706C254.455 47.2268 254.358 47.84 254.358 48.5455ZM266.908 39.4545V54H264.337V39.4545H266.908ZM272.691 54.2202C271.999 54.2202 271.377 54.0971 270.823 53.8509C270.274 53.5999 269.838 53.2306 269.516 52.7429C269.199 52.2552 269.04 51.6539 269.04 50.9389C269.04 50.3234 269.154 49.8144 269.381 49.4119C269.608 49.0095 269.918 48.6875 270.311 48.446C270.704 48.2045 271.147 48.0223 271.64 47.8991C272.137 47.7713 272.65 47.679 273.181 47.6222C273.82 47.5559 274.338 47.4967 274.736 47.4446C275.134 47.3878 275.423 47.3026 275.603 47.1889C275.787 47.0705 275.88 46.8883 275.88 46.642V46.5994C275.88 46.0644 275.721 45.6501 275.404 45.3565C275.087 45.063 274.63 44.9162 274.033 44.9162C273.403 44.9162 272.904 45.0535 272.534 45.3281C272.17 45.6027 271.924 45.9271 271.796 46.3011L269.395 45.9602C269.585 45.2973 269.897 44.7434 270.333 44.2983C270.768 43.8485 271.301 43.5123 271.931 43.2898C272.56 43.0625 273.257 42.9489 274.019 42.9489C274.544 42.9489 275.068 43.0104 275.588 43.1335C276.109 43.2566 276.585 43.4602 277.016 43.7443C277.447 44.0237 277.792 44.4048 278.053 44.8878C278.318 45.3707 278.451 45.9744 278.451 46.6989V54H275.979V52.5014H275.894C275.738 52.8045 275.517 53.0885 275.233 53.3537C274.954 53.6141 274.601 53.8248 274.175 53.9858C273.754 54.142 273.259 54.2202 272.691 54.2202ZM273.358 52.331C273.874 52.331 274.322 52.2292 274.701 52.0256C275.079 51.8172 275.371 51.5426 275.574 51.2017C275.783 50.8608 275.887 50.4891 275.887 50.0866V48.8011C275.806 48.8674 275.669 48.929 275.475 48.9858C275.285 49.0426 275.072 49.0923 274.836 49.1349C274.599 49.1776 274.364 49.2154 274.132 49.2486C273.9 49.2817 273.699 49.3101 273.529 49.3338C273.145 49.3859 272.802 49.4711 272.499 49.5895C272.196 49.7079 271.957 49.8736 271.782 50.0866C271.606 50.295 271.519 50.5649 271.519 50.8963C271.519 51.3698 271.692 51.7273 272.037 51.9688C272.383 52.2102 272.823 52.331 273.358 52.331ZM285.794 54.2131C284.705 54.2131 283.77 53.974 282.989 53.4957C282.212 53.0175 281.614 52.357 281.192 51.5142C280.775 50.6667 280.567 49.6913 280.567 48.5881C280.567 47.4801 280.78 46.5024 281.206 45.6548C281.632 44.8026 282.234 44.1397 283.01 43.6662C283.792 43.188 284.715 42.9489 285.78 42.9489C286.666 42.9489 287.449 43.1122 288.131 43.4389C288.818 43.7609 289.364 44.2178 289.772 44.8097C290.179 45.3968 290.411 46.0833 290.468 46.8693H288.01C287.911 46.3437 287.674 45.9058 287.3 45.5554C286.931 45.2003 286.436 45.0227 285.816 45.0227C285.29 45.0227 284.828 45.1648 284.431 45.4489C284.033 45.7282 283.723 46.1307 283.5 46.6562C283.283 47.1818 283.174 47.8116 283.174 48.5455C283.174 49.2888 283.283 49.928 283.5 50.4631C283.718 50.9934 284.024 51.4029 284.417 51.6918C284.814 51.9759 285.281 52.1179 285.816 52.1179C286.194 52.1179 286.533 52.0469 286.831 51.9048C287.134 51.758 287.388 51.5473 287.591 51.2727C287.795 50.9981 287.935 50.6643 288.01 50.2713H290.468C290.406 51.0431 290.179 51.7273 289.786 52.3239C289.393 52.9157 288.858 53.3797 288.181 53.7159C287.504 54.0473 286.708 54.2131 285.794 54.2131ZM297.408 54.2131C296.315 54.2131 295.37 53.9858 294.575 53.5312C293.784 53.072 293.175 52.4233 292.749 51.5852C292.323 50.7424 292.11 49.7505 292.11 48.6094C292.11 47.4872 292.323 46.5024 292.749 45.6548C293.18 44.8026 293.781 44.1397 294.553 43.6662C295.325 43.188 296.232 42.9489 297.273 42.9489C297.946 42.9489 298.58 43.0578 299.177 43.2756C299.778 43.4886 300.308 43.8201 300.768 44.2699C301.232 44.7197 301.596 45.2926 301.862 45.9886C302.127 46.6799 302.259 47.5038 302.259 48.4602V49.2486H293.317V47.5156H299.795C299.79 47.0232 299.683 46.5852 299.475 46.2017C299.267 45.8134 298.976 45.508 298.602 45.2855C298.232 45.063 297.801 44.9517 297.309 44.9517C296.783 44.9517 296.322 45.0795 295.924 45.3352C295.526 45.5862 295.216 45.9176 294.994 46.3295C294.776 46.7367 294.665 47.1842 294.66 47.6719V49.1847C294.66 49.8191 294.776 50.3636 295.008 50.8182C295.24 51.268 295.564 51.6136 295.981 51.8551C296.397 52.0919 296.885 52.2102 297.444 52.2102C297.818 52.2102 298.156 52.1581 298.46 52.054C298.763 51.9451 299.025 51.7865 299.248 51.5781C299.47 51.3698 299.638 51.1117 299.752 50.804L302.153 51.0739C302.001 51.7083 301.712 52.2623 301.286 52.7358C300.865 53.2045 300.325 53.5691 299.667 53.8295C299.009 54.0852 298.256 54.2131 297.408 54.2131Z" fill="black"/>
<path d="M46.3078 95.3125C46.3078 88.6825 51.6825 83.3078 58.3125 83.3078H305.688C312.317 83.3078 317.692 88.6825 317.692 95.3125C317.692 101.943 312.318 107.317 305.688 107.317H58.3125C51.6825 107.317 46.3078 101.943 46.3078 95.3125Z" fill="white"/>
<path d="M46.3078 95.3125C46.3078 88.6825 51.6825 83.3078 58.3125 83.3078H305.688C312.317 83.3078 317.692 88.6825 317.692 95.3125C317.692 101.943 312.318 107.317 305.688 107.317H58.3125C51.6825 107.317 46.3078 101.943 46.3078 95.3125Z" stroke="#E0E0E0" stroke-width="0.615625"/>
<path d="M58.8041 94.2237C58.7674 93.9135 58.6185 93.6728 58.3573 93.5014C58.0961 93.33 57.7758 93.2443 57.3962 93.2443C57.1187 93.2443 56.8759 93.2892 56.6678 93.3789C56.4617 93.4687 56.3005 93.5922 56.1842 93.7493C56.07 93.9064 56.0128 94.0849 56.0128 94.2849C56.0128 94.4522 56.0526 94.596 56.1322 94.7164C56.2138 94.8348 56.3179 94.9337 56.4444 95.0133C56.5709 95.0908 56.7035 95.1551 56.8423 95.2061C56.981 95.2551 57.1085 95.2949 57.2248 95.3255L57.8615 95.4969C58.0247 95.5397 58.2063 95.5989 58.4063 95.6744C58.6083 95.7499 58.8011 95.8529 58.9847 95.9835C59.1704 96.1121 59.3234 96.2774 59.4438 96.4794C59.5642 96.6814 59.6244 96.9293 59.6244 97.2231C59.6244 97.5618 59.5356 97.8679 59.3581 98.1413C59.1826 98.4147 58.9255 98.632 58.5868 98.7932C58.2502 98.9544 57.8411 99.035 57.3595 99.035C56.9106 99.035 56.5219 98.9626 56.1934 98.8177C55.8669 98.6728 55.6099 98.4708 55.4221 98.2117C55.2365 97.9525 55.1314 97.6516 55.1069 97.3088H55.8904C55.9108 97.5455 55.9904 97.7414 56.1291 97.8964C56.2699 98.0495 56.4474 98.1637 56.6617 98.2392C56.878 98.3127 57.1106 98.3494 57.3595 98.3494C57.6493 98.3494 57.9094 98.3025 58.14 98.2086C58.3705 98.1127 58.5532 97.9801 58.6878 97.8107C58.8225 97.6393 58.8898 97.4394 58.8898 97.2108C58.8898 97.0027 58.8317 96.8334 58.7154 96.7028C58.5991 96.5722 58.446 96.4661 58.2563 96.3845C58.0665 96.3029 57.8615 96.2314 57.6411 96.1702L56.8698 95.9499C56.3801 95.8091 55.9924 95.6081 55.7068 95.3469C55.4211 95.0857 55.2783 94.744 55.2783 94.3216C55.2783 93.9707 55.3732 93.6646 55.5629 93.4034C55.7547 93.1402 56.0118 92.9362 56.3342 92.7913C56.6586 92.6444 57.0208 92.5709 57.4207 92.5709C57.8247 92.5709 58.1838 92.6434 58.4981 92.7882C58.8123 92.9311 59.0612 93.1269 59.2449 93.3759C59.4305 93.6248 59.5285 93.9074 59.5387 94.2237H58.8041ZM62.7455 99.0227C62.2925 99.0227 61.9018 98.9228 61.5732 98.7228C61.2468 98.5208 60.9948 98.2392 60.8173 97.8781C60.6418 97.5149 60.5541 97.0925 60.5541 96.611C60.5541 96.1294 60.6418 95.705 60.8173 95.3377C60.9948 94.9684 61.2417 94.6807 61.5579 94.4746C61.8763 94.2665 62.2476 94.1625 62.672 94.1625C62.9169 94.1625 63.1587 94.2033 63.3974 94.2849C63.6361 94.3665 63.8534 94.4991 64.0493 94.6828C64.2452 94.8644 64.4013 95.1051 64.5176 95.4051C64.6339 95.705 64.692 96.0743 64.692 96.513V96.8191H61.0682V96.1947H63.9575C63.9575 95.9295 63.9044 95.6928 63.7983 95.4846C63.6943 95.2765 63.5453 95.1123 63.3515 94.9919C63.1597 94.8715 62.9332 94.8113 62.672 94.8113C62.3843 94.8113 62.1354 94.8827 61.9252 95.0256C61.7171 95.1663 61.5569 95.35 61.4447 95.5765C61.3325 95.803 61.2764 96.0458 61.2764 96.3049V96.7211C61.2764 97.0762 61.3376 97.3771 61.46 97.624C61.5845 97.8689 61.7569 98.0556 61.9773 98.1841C62.1976 98.3106 62.4537 98.3739 62.7455 98.3739C62.9352 98.3739 63.1066 98.3474 63.2597 98.2943C63.4147 98.2392 63.5484 98.1576 63.6606 98.0495C63.7728 97.9393 63.8595 97.8026 63.9208 97.6393L64.6186 97.8352C64.5451 98.0719 64.4217 98.28 64.2482 98.4596C64.0748 98.6371 63.8606 98.7759 63.6055 98.8758C63.3505 98.9738 63.0638 99.0227 62.7455 99.0227ZM67.1742 99.035C66.8763 99.035 66.606 98.9789 66.3631 98.8667C66.1203 98.7524 65.9275 98.5881 65.7847 98.3739C65.6419 98.1576 65.5704 97.8964 65.5704 97.5904C65.5704 97.321 65.6235 97.1027 65.7296 96.9354C65.8357 96.766 65.9775 96.6334 66.155 96.5375C66.3325 96.4416 66.5284 96.3702 66.7427 96.3233C66.9589 96.2743 67.1763 96.2355 67.3946 96.207C67.6802 96.1702 67.9118 96.1427 68.0893 96.1243C68.2689 96.1039 68.3995 96.0703 68.4811 96.0233C68.5648 95.9764 68.6066 95.8948 68.6066 95.7785V95.754C68.6066 95.452 68.524 95.2174 68.3587 95.05C68.1954 94.8827 67.9475 94.7991 67.6149 94.7991C67.2701 94.7991 66.9998 94.8746 66.8039 95.0256C66.608 95.1765 66.4703 95.3377 66.3907 95.5091L65.7051 95.2643C65.8275 94.9786 65.9908 94.7562 66.1948 94.5971C66.4009 94.4359 66.6253 94.3236 66.8681 94.2604C67.113 94.1951 67.3538 94.1625 67.5905 94.1625C67.7414 94.1625 67.9149 94.1808 68.1108 94.2175C68.3087 94.2522 68.4995 94.3247 68.6831 94.4349C68.8688 94.545 69.0228 94.7113 69.1453 94.9337C69.2677 95.1561 69.3289 95.454 69.3289 95.8274V98.9248H68.6066V98.2882H68.5699C68.5209 98.3902 68.4393 98.4994 68.325 98.6157C68.2107 98.732 68.0587 98.8309 67.869 98.9126C67.6792 98.9942 67.4476 99.035 67.1742 99.035ZM67.2844 98.3861C67.5701 98.3861 67.8108 98.33 68.0067 98.2178C68.2046 98.1056 68.3536 97.9607 68.4536 97.7832C68.5556 97.6057 68.6066 97.419 68.6066 97.2231V96.562C68.576 96.5987 68.5086 96.6324 68.4046 96.663C68.3026 96.6916 68.1842 96.7171 68.0496 96.7395C67.9169 96.7599 67.7874 96.7783 67.6609 96.7946C67.5364 96.8089 67.4354 96.8211 67.3578 96.8313C67.1701 96.8558 66.9947 96.8956 66.8314 96.9507C66.6702 97.0037 66.5396 97.0843 66.4397 97.1925C66.3417 97.2986 66.2927 97.4435 66.2927 97.6271C66.2927 97.8781 66.3856 98.0678 66.5713 98.1964C66.759 98.3229 66.9967 98.3861 67.2844 98.3861ZM70.6473 98.9248V94.2237H71.3451V94.9337H71.3941C71.4798 94.7011 71.6348 94.5124 71.8593 94.3675C72.0837 94.2226 72.3367 94.1502 72.6183 94.1502C72.6714 94.1502 72.7377 94.1512 72.8173 94.1533C72.8968 94.1553 72.957 94.1584 72.9978 94.1625V94.897C72.9734 94.8909 72.9172 94.8817 72.8295 94.8695C72.7438 94.8552 72.653 94.848 72.5571 94.848C72.3286 94.848 72.1245 94.896 71.945 94.9919C71.7675 95.0857 71.6267 95.2163 71.5226 95.3836C71.4206 95.5489 71.3696 95.7377 71.3696 95.9499V98.9248H70.6473ZM75.6208 99.0227C75.1801 99.0227 74.8005 98.9187 74.4822 98.7106C74.1639 98.5024 73.9191 98.2158 73.7477 97.8505C73.5763 97.4853 73.4906 97.068 73.4906 96.5987C73.4906 96.1213 73.5783 95.6999 73.7538 95.3347C73.9313 94.9674 74.1782 94.6807 74.4945 94.4746C74.8128 94.2665 75.1841 94.1625 75.6086 94.1625C75.9391 94.1625 76.237 94.2237 76.5023 94.3461C76.7675 94.4685 76.9848 94.6399 77.1542 94.8603C77.3235 95.0806 77.4286 95.3377 77.4694 95.6316H76.7471C76.692 95.4173 76.5696 95.2276 76.3798 95.0623C76.1921 94.895 75.9391 94.8113 75.6208 94.8113C75.3392 94.8113 75.0923 94.8848 74.8801 95.0317C74.67 95.1765 74.5057 95.3816 74.3874 95.6469C74.2711 95.9101 74.2129 96.2192 74.2129 96.5742C74.2129 96.9374 74.27 97.2537 74.3843 97.523C74.5006 97.7924 74.6638 98.0015 74.874 98.1505C75.0862 98.2994 75.3351 98.3739 75.6208 98.3739C75.8085 98.3739 75.9789 98.3412 76.1319 98.2759C76.285 98.2107 76.4145 98.1168 76.5206 97.9944C76.6267 97.8719 76.7022 97.725 76.7471 97.5536H77.4694C77.4286 97.8311 77.3276 98.0811 77.1664 98.3035C77.0073 98.5239 76.7961 98.6993 76.5329 98.8299C76.2717 98.9585 75.9677 99.0227 75.6208 99.0227ZM79.2477 96.0968V98.9248H78.5253V92.6566H79.2477V94.9582H79.3089C79.419 94.7154 79.5843 94.5226 79.8047 94.3798C80.0271 94.2349 80.323 94.1625 80.6923 94.1625C81.0126 94.1625 81.2932 94.2267 81.5339 94.3553C81.7747 94.4818 81.9614 94.6766 82.094 94.9399C82.2287 95.201 82.296 95.5336 82.296 95.9376V98.9248H81.5737V95.9866C81.5737 95.6132 81.4768 95.3245 81.283 95.1204C81.0912 94.9144 80.8249 94.8113 80.4842 94.8113C80.2475 94.8113 80.0353 94.8613 79.8475 94.9613C79.6619 95.0613 79.5149 95.2072 79.4068 95.399C79.3007 95.5908 79.2477 95.8234 79.2477 96.0968Z" fill="#A3A3A3"/>
<path d="M46.25 137C46.25 132.72 49.7198 129.25 54 129.25H118C122.28 129.25 125.75 132.72 125.75 137V194C125.75 198.28 122.28 201.75 118 201.75H54C49.7198 201.75 46.25 198.28 46.25 194V137Z" fill="#F0F0F0" stroke="url(#paint0_linear_1007_26322)" stroke-width="0.5"/>
<rect x="51" y="175" width="57" height="8" rx="4" fill="#E0E0E0"/>
<rect x="51" y="189" width="35" height="8" rx="4" fill="#E0E0E0"/>
<path d="M51.5 138C51.5 136.067 53.067 134.5 55 134.5H117C118.933 134.5 120.5 136.067 120.5 138V167.5H51.5V138Z" fill="white" stroke="#E0E0E0"/>
<path d="M142.25 137C142.25 132.72 145.72 129.25 150 129.25H214C218.28 129.25 221.75 132.72 221.75 137V194C221.75 198.28 218.28 201.75 214 201.75H150C145.72 201.75 142.25 198.28 142.25 194V137Z" fill="#FFF1F3" stroke="url(#paint1_linear_1007_26322)" stroke-width="0.5"/>
<rect x="147" y="175" width="57" height="8" rx="4" fill="#E0E0E0"/>
<rect x="147" y="189" width="35" height="8" rx="4" fill="#F63D68"/>
<path d="M147.5 138C147.5 136.067 149.067 134.5 151 134.5H213C214.933 134.5 216.5 136.067 216.5 138V167.5H147.5V138Z" fill="white" stroke="#E0E0E0"/>
<path d="M238.25 137C238.25 132.72 241.72 129.25 246 129.25H310C314.28 129.25 317.75 132.72 317.75 137V194C317.75 198.28 314.28 201.75 310 201.75H246C241.72 201.75 238.25 198.28 238.25 194V137Z" fill="#F0F0F0" stroke="url(#paint2_linear_1007_26322)" stroke-width="0.5"/>
<rect x="243" y="175" width="57" height="8" rx="4" fill="#E0E0E0"/>
<rect x="243" y="189" width="35" height="8" rx="4" fill="#E0E0E0"/>
<path d="M243.5 138C243.5 136.067 245.067 134.5 247 134.5H309C310.933 134.5 312.5 136.067 312.5 138V167.5H243.5V138Z" fill="white" stroke="#E0E0E0"/>
<path d="M46.25 231C46.25 226.72 49.7198 223.25 54 223.25H118C122.28 223.25 125.75 226.72 125.75 231V288C125.75 292.28 122.28 295.75 118 295.75H54C49.7198 295.75 46.25 292.28 46.25 288V231Z" fill="#F0F0F0" stroke="url(#paint3_linear_1007_26322)" stroke-width="0.5"/>
<path d="M51.5 232C51.5 230.067 53.067 228.5 55 228.5H117C118.933 228.5 120.5 230.067 120.5 232V261.5H51.5V232Z" fill="white" stroke="#E0E0E0"/>
<path d="M142.25 231C142.25 226.72 145.72 223.25 150 223.25H214C218.28 223.25 221.75 226.72 221.75 231V288C221.75 292.28 218.28 295.75 214 295.75H150C145.72 295.75 142.25 292.28 142.25 288V231Z" fill="#F0F0F0" stroke="url(#paint4_linear_1007_26322)" stroke-width="0.5"/>
<path d="M147.5 232C147.5 230.067 149.067 228.5 151 228.5H213C214.933 228.5 216.5 230.067 216.5 232V261.5H147.5V232Z" fill="white" stroke="#E0E0E0"/>
<path d="M238.25 231C238.25 226.72 241.72 223.25 246 223.25H310C314.28 223.25 317.75 226.72 317.75 231V288C317.75 292.28 314.28 295.75 310 295.75H246C241.72 295.75 238.25 292.28 238.25 288V231Z" fill="#F0F0F0" stroke="url(#paint5_linear_1007_26322)" stroke-width="0.5"/>
<path d="M243.5 232C243.5 230.067 245.067 228.5 247 228.5H309C310.933 228.5 312.5 230.067 312.5 232V261.5H243.5V232Z" fill="white" stroke="#E0E0E0"/>
<path d="M66 49H59V56H66V49Z" stroke="#F63D68" stroke-width="2" stroke-linecap="round" stroke-linejoin="round"/>
<path d="M55 49H48V56H55V49Z" stroke="#F63D68" stroke-width="2" stroke-linecap="round" stroke-linejoin="round"/>
<path d="M55 38H48V45H55V38Z" stroke="#F63D68" stroke-width="2" stroke-linecap="round" stroke-linejoin="round"/>
<path d="M59 42L61 44L66 39" stroke="#F63D68" stroke-width="2" stroke-linecap="round" stroke-linejoin="round"/>
</g>
<path d="M0.5 32C0.5 14.603 14.603 0.5 32 0.5H332C349.397 0.5 363.5 14.603 363.5 32V229C363.5 246.397 349.397 260.5 332 260.5H32C14.603 260.5 0.5 246.397 0.5 229V32Z" stroke="#E0E0E0"/>
<defs>
<linearGradient id="paint0_linear_1007_26322" x1="86" y1="129" x2="86" y2="202" gradientUnits="userSpaceOnUse">
<stop stop-color="#CCCCCC"/>
<stop offset="0.583333" stop-color="#CCCCCC" stop-opacity="0.18"/>
<stop offset="0.989583" stop-color="#5C5C5C" stop-opacity="0.08"/>
</linearGradient>
<linearGradient id="paint1_linear_1007_26322" x1="182" y1="129" x2="182" y2="202" gradientUnits="userSpaceOnUse">
<stop stop-color="#CCCCCC"/>
<stop offset="0.583333" stop-color="#CCCCCC" stop-opacity="0.18"/>
<stop offset="0.989583" stop-color="#5C5C5C" stop-opacity="0.08"/>
</linearGradient>
<linearGradient id="paint2_linear_1007_26322" x1="278" y1="129" x2="278" y2="202" gradientUnits="userSpaceOnUse">
<stop stop-color="#CCCCCC"/>
<stop offset="0.583333" stop-color="#CCCCCC" stop-opacity="0.18"/>
<stop offset="0.989583" stop-color="#5C5C5C" stop-opacity="0.08"/>
</linearGradient>
<linearGradient id="paint3_linear_1007_26322" x1="86" y1="223" x2="86" y2="296" gradientUnits="userSpaceOnUse">
<stop stop-color="#CCCCCC"/>
<stop offset="0.583333" stop-color="#CCCCCC" stop-opacity="0.18"/>
<stop offset="0.989583" stop-color="#5C5C5C" stop-opacity="0.08"/>
</linearGradient>
<linearGradient id="paint4_linear_1007_26322" x1="182" y1="223" x2="182" y2="296" gradientUnits="userSpaceOnUse">
<stop stop-color="#CCCCCC"/>
<stop offset="0.583333" stop-color="#CCCCCC" stop-opacity="0.18"/>
<stop offset="0.989583" stop-color="#5C5C5C" stop-opacity="0.08"/>
</linearGradient>
<linearGradient id="paint5_linear_1007_26322" x1="278" y1="223" x2="278" y2="296" gradientUnits="userSpaceOnUse">
<stop stop-color="#CCCCCC"/>
<stop offset="0.583333" stop-color="#CCCCCC" stop-opacity="0.18"/>
<stop offset="0.989583" stop-color="#5C5C5C" stop-opacity="0.08"/>
</linearGradient>
<clipPath id="clip0_1007_26322">
<path d="M0 32C0 14.3269 14.3269 0 32 0H332C349.673 0 364 14.3269 364 32V229C364 246.673 349.673 261 332 261H32C14.3269 261 0 246.673 0 229V32Z" fill="white"/>
</clipPath>
</defs>
</svg>
